# xmcd
#
# Track frame offsets:
# 150
# 12192
# 23218
# 34077
# 43645
# 56155
# 66779
# 77914
# 88644
# 98607
# 109919
# 120664
# 132130
# 149149
# 160189
#
# Disc length: 2280 seconds
#
#
# Revision: 2
# Processed by: cddbd v1.5.1PL0 Copyright (c) Steve Scherf et al.
# Submitted via: FreeRIP 2.90 
#
DISCID=c908e60f
DTITLE=Chuk Best - Chubby Checker Ultimate Collection
DYEAR=1900
DGENRE=Rhythmic Soul
TTITLE0=The Twist
TTITLE1=Limbo Rock
TTITLE2=Hey Bobba Needle
TTITLE3=Loddy Lo
TTITLE4=Slow Twistin'
TTITLE5=The Fly
TTITLE6=Pony Time
TTITLE7=Let's Twist Again
TTITLE8=Let's Limbo Some More
TTITLE9=Birdland
TTITLE10=Dance The Mess Around
TTITLE11=Popeye The Hitchhicker
TTITLE12=Twist It Up
TTITLE13=The Huclebuck
TTITLE14=Dancin' Party
EXTD=Cover Version
EXTT0=
EXTT1=
EXTT2=
EXTT3=
EXTT4=
EXTT5=
EXTT6=
EXTT7=
EXTT8=
EXTT9=
EXTT10=
EXTT11=
EXTT12=
EXTT13=
EXTT14=
PLAYORDER=
